<svg width="68" height="78" viewBox="0 0 68 78" fill="none" xmlns="http://www.w3.org/2000/svg">
<rect x="1" y="1" width="66" height="76" stroke="white" stroke-opacity="0.01" stroke-width="2"/>
<path d="M34 39C44.7313 39 53.4286 30.2707 53.4286 19.5C53.4286 8.7293 44.7313 0 34 0C23.2688 0 14.5714 8.7293 14.5714 19.5C14.5714 30.2707 23.2688 39 34 39ZM47.6 43.875H45.0652C41.6955 45.4289 37.9464 46.3125 34 46.3125C30.0536 46.3125 26.3196 45.4289 22.9348 43.875H20.4C9.1375 43.875 0 53.0461 0 64.35V70.6875C0 74.7246 3.26339 78 7.28571 78H60.7143C64.7366 78 68 74.7246 68 70.6875V64.35C68 53.0461 58.8625 43.875 47.6 43.875Z" fill="#007BFE"/>
</svg>
