<svg width="28" height="25" viewBox="0 0 28 25" fill="none" xmlns="http://www.w3.org/2000/svg">
<path d="M24.6667 19.25H3.08333C1.38287 19.25 0 20.4834 0 22C0 23.5166 1.38287 24.75 3.08333 24.75H24.6667C26.3671 24.75 27.75 23.5166 27.75 22C27.75 20.4834 26.3671 19.25 24.6667 19.25ZM24.6667 9.625H3.08333C1.38287 9.625 0 10.8584 0 12.375C0 13.8916 1.38287 15.125 3.08333 15.125H24.6667C26.3671 15.125 27.75 13.8916 27.75 12.375C27.75 10.8584 26.3671 9.625 24.6667 9.625ZM24.6667 0H3.08333C1.38287 0 0 1.23337 0 2.75C0 4.26662 1.38287 5.5 3.08333 5.5H24.6667C26.3671 5.5 27.75 4.26662 27.75 2.75C27.75 1.23337 26.3671 0 24.6667 0Z" fill="#585858"/>
</svg>
